<svg width="198" height="104" viewBox="0 0 198 104" fill="none" xmlns="http://www.w3.org/2000/svg">
<circle cx="53" cy="52" r="40" fill="#C9F31D"/>
<path d="M33.3125 77.5312L2.28125 65.8438V44.2812L33.3125 32.5938V52.3438L16.3125 57.4062L33.3125 62.5V77.5312ZM36.9688 77L48.9688 29H68.9688L56.9688 77H36.9688ZM72.5625 77.5312V62.5L89.5625 57.4062L72.5625 52.3438V32.5938L103.594 44.2812V65.8438L72.5625 77.5312Z" fill="white"/>
<path d="M110.482 71V33.2H117.718L133.81 59.876H129.976L145.798 33.2H152.98L153.088 71H144.88L144.826 45.782H146.338L133.702 67.004H129.76L116.854 45.782H118.69V71H110.482ZM162.056 71V33.2H178.418C181.802 33.2 184.718 33.758 187.166 34.874C189.614 35.954 191.504 37.52 192.836 39.572C194.168 41.624 194.834 44.072 194.834 46.916C194.834 49.724 194.168 52.154 192.836 54.206C191.504 56.222 189.614 57.77 187.166 58.85C184.718 59.93 181.802 60.47 178.418 60.47H166.916L170.804 56.636V71H162.056ZM186.086 71L176.636 57.284H185.978L195.536 71H186.086ZM170.804 57.608L166.916 53.504H177.932C180.632 53.504 182.648 52.928 183.98 51.776C185.312 50.588 185.978 48.968 185.978 46.916C185.978 44.828 185.312 43.208 183.98 42.056C182.648 40.904 180.632 40.328 177.932 40.328H166.916L170.804 36.17V57.608Z" fill="white"/>
</svg>
