<svg width="80" height="80" viewBox="0 0 80 80" fill="none" xmlns="http://www.w3.org/2000/svg">
<circle cx="40" cy="40" r="40" fill="#C9F31D"/>
<path d="M13.822 52V28.2H18.378L28.51 44.996H26.096L36.058 28.2H40.58L40.648 52H35.48L35.446 36.122H36.398L28.442 49.484H25.96L17.834 36.122H18.99V52H13.822ZM46.2947 52V28.2H56.5967C58.7273 28.2 60.5633 28.5513 62.1047 29.254C63.646 29.934 64.836 30.92 65.6747 32.212C66.5133 33.504 66.9327 35.0453 66.9327 36.836C66.9327 38.604 66.5133 40.134 65.6747 41.426C64.836 42.6953 63.646 43.67 62.1047 44.35C60.5633 45.03 58.7273 45.37 56.5967 45.37H49.3547L51.8027 42.956V52H46.2947ZM61.4247 52L55.4747 43.364H61.3567L67.3747 52H61.4247ZM51.8027 43.568L49.3547 40.984H56.2907C57.9907 40.984 59.26 40.6213 60.0987 39.896C60.9373 39.148 61.3567 38.128 61.3567 36.836C61.3567 35.5213 60.9373 34.5013 60.0987 33.776C59.26 33.0507 57.9907 32.688 56.2907 32.688H49.3547L51.8027 30.07V43.568Z" fill="black"/>
</svg>
